<svg width="32" height="33" viewBox="0 0 32 33" fill="none" xmlns="http://www.w3.org/2000/svg">
<g clip-path="url(#clip0_2_3447)">
<path d="M23.3905 13.4325L23.3902 13.432L21.3904 10.099C21.3903 10.099 21.3903 10.0989 21.3903 10.0989C21.3844 10.0891 21.376 10.0809 21.366 10.0753L21.6612 9.55373L21.366 10.0753C21.3561 10.0696 21.3448 10.0667 21.3333 10.0666L23.3905 13.4325ZM23.3905 13.4325C23.3967 13.4429 23.4 13.4547 23.4 13.4668L23.4 13.4683C23.4011 13.8674 23.2863 14.2583 23.0695 14.5935C22.8527 14.9286 22.5433 15.1936 22.1788 15.3563C21.8143 15.519 21.4104 15.5723 21.0161 15.5099C20.6219 15.4474 20.2543 15.2718 19.9579 15.0045L19.5553 14.6413L19.1533 15.0052C18.7762 15.3466 18.2857 15.5357 17.777 15.5357C17.2683 15.5357 16.7778 15.3466 16.4007 15.0052L15.9983 14.6409L15.5957 15.0048C15.2187 15.3455 14.7288 15.5341 14.2207 15.5341C13.7126 15.5341 13.2226 15.3455 12.8457 15.0048L12.4434 14.6413L12.0411 15.0047C11.6632 15.3462 11.1716 15.5346 10.6622 15.5333H10.6607H10.6561C10.1098 15.5318 9.58636 15.3134 9.20084 14.9263L8.77568 15.3496L9.20084 14.9263C8.81516 14.5389 8.59904 14.0143 8.6 13.4677L8.6 13.4668C8.60001 13.4547 8.6033 13.4429 8.60954 13.4325L8.60983 13.432M23.3905 13.4325L8.60983 13.432M8.60983 13.432L10.6097 10.099C10.6097 10.0989 10.6097 10.0989 10.6097 10.0989C10.6156 10.0891 10.624 10.0809 10.634 10.0753C10.6439 10.0696 10.6552 10.0667 10.6667 10.0666L8.60983 13.432ZM10.6553 16.1333H10.6607C11.3192 16.135 11.9547 15.8914 12.4433 15.45C12.9306 15.8903 13.5639 16.1341 14.2207 16.1341L10.6553 16.1333ZM10.6668 10.0666H21.3332H10.6668Z" stroke="#596CFF" stroke-width="1.2"/>
<path d="M21.3444 18.0666V18.0667L21.3519 18.0666C21.368 18.0664 21.384 18.0661 21.4 18.0657V24.1333C21.4 24.151 21.393 24.1679 21.3805 24.1804C21.368 24.1929 21.351 24.2 21.3333 24.2H17.9333V20.8V20.2H17.3333H14.6667H14.0667V20.8V24.2H10.6667C10.649 24.2 10.632 24.1929 10.6195 24.1804C10.607 24.1679 10.6 24.151 10.6 24.1333V18.0658C10.6183 18.0662 10.6366 18.0664 10.6549 18.0666L10.6549 18.0666L10.6597 18.0666C11.2731 18.0677 11.8796 17.9458 12.4435 17.7093C12.5465 17.7525 12.6511 17.792 12.757 17.8277C13.3274 18.0214 13.9305 18.1003 14.5315 18.0596C15.0377 18.0253 15.5339 17.9068 15.9999 17.7096C16.1027 17.7526 16.207 17.792 16.3127 17.8275C16.8834 18.021 17.4868 18.0996 18.088 18.0588C18.595 18.0244 19.0921 17.9056 19.5588 17.7079C20.1233 17.9448 20.7303 18.0671 21.3444 18.0666Z" stroke="#596CFF" stroke-width="1.2"/>
</g>
<defs>
<clipPath id="clip0_2_3447">
<rect width="16" height="16" fill="white" transform="translate(8 8.79999)"/>
</clipPath>
</defs>
</svg>
