<svg width="16" height="17" viewBox="0 0 16 17" fill="none" xmlns="http://www.w3.org/2000/svg">
<g clip-path="url(#clip0_2_3472)">
<path d="M15.3905 5.4325L15.3902 5.43201L13.3904 2.09898C13.3903 2.09896 13.3903 2.09895 13.3903 2.09893C13.3844 2.08909 13.376 2.08095 13.366 2.07529L13.6612 1.55373L13.366 2.07529C13.3561 2.06964 13.3448 2.06667 13.3333 2.06664L15.3905 5.4325ZM15.3905 5.4325C15.3967 5.44287 15.4 5.45474 15.4 5.46683L15.4 5.46829C15.4011 5.86744 15.2863 6.25833 15.0695 6.59348C14.8527 6.92863 14.5433 7.19363 14.1788 7.35631C13.8143 7.51898 13.4104 7.57233 13.0161 7.50987C12.6219 7.44742 12.2543 7.27185 11.9579 7.00448L11.5553 6.64126L11.1533 7.00519C10.7762 7.34659 10.2857 7.53565 9.777 7.53565C9.26832 7.53565 8.77779 7.34659 8.40069 7.00519L7.99835 6.64092L7.59569 7.00484C7.21875 7.34553 6.72875 7.53415 6.22067 7.53415C5.71259 7.53415 5.22259 7.34553 4.84565 7.00484L4.44345 6.64133L4.04114 7.00474C3.66316 7.34617 3.17157 7.53461 2.6622 7.53331H2.66067H2.65613C2.10978 7.53176 1.58636 7.31343 1.20084 6.92627L0.775678 7.34962L1.20084 6.92626C0.815157 6.53893 0.599043 6.01431 0.600004 5.4677L0.600004 5.46683C0.600008 5.45474 0.603303 5.44287 0.609538 5.4325L0.609833 5.43201M15.3905 5.4325L0.609833 5.43201M0.609833 5.43201L2.60965 2.09898C2.60967 2.09894 2.60969 2.09891 2.60971 2.09888C2.61563 2.08906 2.62399 2.08094 2.63396 2.07529C2.64394 2.06964 2.65521 2.06667 2.66667 2.06664L0.609833 5.43201ZM2.65534 8.13331H2.66067C3.31917 8.13499 3.95469 7.89138 4.44334 7.44998C4.93057 7.89034 5.56393 8.13415 6.22067 8.13415L2.65534 8.13331ZM2.66678 2.06664H13.3332H2.66678Z" stroke="#596CFF" stroke-width="1.2"/>
<path d="M13.3444 10.0666V10.0667L13.3519 10.0666C13.368 10.0664 13.384 10.0661 13.4 10.0657V16.1333C13.4 16.151 13.393 16.1679 13.3805 16.1804C13.368 16.1929 13.351 16.2 13.3333 16.2H9.93333V12.8V12.2H9.33333H6.66667H6.06667V12.8V16.2H2.66667C2.64898 16.2 2.63203 16.1929 2.61953 16.1804C2.60702 16.1679 2.6 16.151 2.6 16.1333V10.0658C2.61831 10.0662 2.63662 10.0664 2.65494 10.0666L2.65494 10.0666L2.65967 10.0666C3.27314 10.0677 3.87959 9.94579 4.44353 9.70933C4.54655 9.75251 4.65112 9.79198 4.75703 9.82766C5.32739 10.0214 5.9305 10.1003 6.5315 10.0596C7.03767 10.0253 7.53388 9.9068 7.99988 9.70962C8.10267 9.75264 8.20701 9.79197 8.31267 9.82753C8.88338 10.021 9.48675 10.0996 10.088 10.0588C10.595 10.0244 11.0921 9.90555 11.5588 9.70789C12.1233 9.94475 12.7303 10.0671 13.3444 10.0666Z" stroke="#596CFF" stroke-width="1.2"/>
</g>
<defs>
<clipPath id="clip0_2_3472">
<rect width="16" height="16" fill="white" transform="translate(0 0.799988)"/>
</clipPath>
</defs>
</svg>
