<svg width="14" height="16" viewBox="0 0 14 16" fill="none" xmlns="http://www.w3.org/2000/svg">
<path d="M9.30737 9.34866C8.61604 9.75466 7.83871 10 7.00004 10C6.16137 10 5.38404 9.75466 4.69271 9.34866C2.26271 9.508 0.333374 11.5307 0.333374 14V15.1533L0.796707 15.302C0.886041 15.33 3.02537 16 7.00004 16C10.9747 16 13.114 15.33 13.2034 15.302L13.6667 15.1533V14C13.6667 11.5307 11.7374 9.508 9.30737 9.34866Z" fill="white"/>
<path d="M7 8.66667C9.25267 8.66667 11 6.158 11 4C11 1.794 9.206 0 7 0C4.794 0 3 1.794 3 4C3 6.158 4.74733 8.66667 7 8.66667Z" fill="white"/>
</svg>
